# xmcd CD database file
#
# Track frame offsets:
#	150
#	16197
#	33577
#	48990
#	69017
#	83170
#	94900
#	107880
#	120540
#	133927
#
# Disc length: 1923 seconds
#
# Revision: 7
# Processed by: cddbd v1.5.2PL0 Copyright (c) Steve Scherf et al.
# Submitted via: CDex 1.51
#
DISCID=7d07810a
DTITLE=Chris LeDoux - Old Cowboy Classics
DYEAR=1983
DGENRE=Country
TTITLE0=The Blizzard
TTITLE1=Night Rider's Lament
TTITLE2=Bad Brahma Bull
TTITLE3=Little Joe The Wrangler
TTITLE4=Ballad Of Will Rogers
TTITLE5=Old Paint
TTITLE6=Tennessee Stud
TTITLE7=Strawberry Roan
TTITLE8=Tie A Knot In The Devil's Tail
TTITLE9=Get Along Little Doggies
EXTD=YEAR: 1983
EXTT0=
EXTT1=
EXTT2=
EXTT3=
EXTT4=
EXTT5=
EXTT6=
EXTT7=
EXTT8=
EXTT9=
PLAYORDER=
